<?xml version="1.0" encoding="iso-8859-1"?>
<!-- Generator: Adobe Illustrator 19.0.0, SVG Export Plug-In . SVG Version: 6.00 Build 0)  -->
<svg version="1.1" id="Capa_1" xmlns="http://www.w3.org/2000/svg" xmlns:xlink="http://www.w3.org/1999/xlink" x="0px" y="0px"
	 viewBox="0 0 512 512" style="enable-background:new 0 0 512 512;" xml:space="preserve">
<g>
	<g>
		<path d="M477.867,494.933H34.133c-4.71,0-8.533,3.823-8.533,8.533S29.423,512,34.133,512h443.733c4.71,0,8.533-3.823,8.533-8.533
			S482.577,494.933,477.867,494.933z"/>
	</g>
</g>
<g>
	<g>
		<path d="M298.667,298.667h-85.333c-4.71,0-8.533,3.823-8.533,8.533v42.667c0,4.71,3.823,8.533,8.533,8.533h85.333
			c4.71,0,8.533-3.823,8.533-8.533V307.2C307.2,302.49,303.377,298.667,298.667,298.667z M290.133,341.333h-68.267v-25.6h68.267
			V341.333z"/>
	</g>
</g>
<g>
	<g>
		<path d="M392.363,220.194L358.229,49.527c-0.794-3.994-4.292-6.861-8.363-6.861H162.133c-4.07,0-7.569,2.867-8.363,6.861
			l-34.133,170.667c-0.503,2.509,0.145,5.111,1.766,7.083c1.621,1.98,4.036,3.123,6.596,3.123h256c2.56,0,4.975-1.143,6.596-3.123
			C392.218,225.306,392.866,222.703,392.363,220.194z M138.411,213.333l30.72-153.6h173.739l30.72,153.6H138.411z"/>
	</g>
</g>
<g>
	<g>
		<path d="M191.795,76.962c-4.642-0.913-9.122,2.065-10.044,6.69l-20.48,102.4c-0.93,4.625,2.065,9.122,6.69,10.044
			c0.563,0.119,1.126,0.171,1.681,0.171c3.985,0,7.544-2.807,8.363-6.861l20.48-102.4C199.415,82.381,196.42,77.884,191.795,76.962z
			"/>
	</g>
</g>
<g>
	<g>
		<path d="M322.799,259.746c-1.587-2.338-4.233-3.746-7.066-3.746H196.267c-2.833,0-5.478,1.408-7.066,3.755
			c-1.587,2.347-1.911,5.325-0.862,7.953l17.067,42.667c1.306,3.234,4.437,5.359,7.927,5.359h85.333c3.49,0,6.622-2.125,7.927-5.367
			l17.067-42.667C324.71,265.071,324.386,262.084,322.799,259.746z M292.89,298.667H219.11l-10.24-25.6h94.259L292.89,298.667z"/>
	</g>
</g>
<g>
	<g>
		<path d="M273.067,213.333h-34.133c-4.71,0-8.533,3.823-8.533,8.533v42.667c0,4.71,3.823,8.533,8.533,8.533h34.133
			c4.71,0,8.533-3.823,8.533-8.533v-42.667C281.6,217.156,277.777,213.333,273.067,213.333z M264.533,256h-17.067v-25.6h17.067V256z
			"/>
	</g>
</g>
<g>
	<g>
		<path d="M256,0c-14.114,0-25.6,11.486-25.6,25.6v25.6c0,4.71,3.823,8.533,8.533,8.533h34.133c4.71,0,8.533-3.823,8.533-8.533V25.6
			C281.6,11.486,270.114,0,256,0z M264.533,42.667h-17.067V25.6c0-4.702,3.831-8.533,8.533-8.533c4.702,0,8.533,3.831,8.533,8.533
			V42.667z"/>
	</g>
</g>
<g>
	<g>
		<path d="M304.358,343.509c-1.562-1.399-3.584-2.176-5.692-2.176h-85.333c-2.108,0-4.13,0.776-5.692,2.176
			c-22.46,20.147-36.975,59.486-36.975,100.224c0,26.53,10.308,49.075,18.057,63.727c1.485,2.79,4.378,4.54,7.543,4.54h119.467
			c3.166,0,6.059-1.749,7.543-4.54c7.748-14.652,18.057-37.197,18.057-63.727C341.333,402.995,326.818,363.657,304.358,343.509z
			 M310.528,494.933H201.472c-9.353-18.799-13.739-35.174-13.739-51.2c0-34.637,11.298-67.644,28.996-85.333h78.541
			c17.698,17.69,28.996,50.697,28.996,85.333C324.267,459.759,319.889,476.134,310.528,494.933z"/>
	</g>
</g>
<g>
	<g>
		<path d="M233.549,376.858c-3.951-2.577-9.242-1.476-11.819,2.466c-10.76,16.444-16.93,39.919-16.93,64.41
			c0,9.062,1.775,18.389,5.427,28.493c1.254,3.473,4.523,5.641,8.021,5.641c0.956,0,1.937-0.162,2.893-0.503
			c4.429-1.596,6.733-6.485,5.129-10.923c-2.961-8.218-4.403-15.65-4.403-22.707c0-20.941,5.291-41.523,14.148-55.057
			C238.592,384.725,237.491,379.443,233.549,376.858z"/>
	</g>
</g>
<g>
</g>
<g>
</g>
<g>
</g>
<g>
</g>
<g>
</g>
<g>
</g>
<g>
</g>
<g>
</g>
<g>
</g>
<g>
</g>
<g>
</g>
<g>
</g>
<g>
</g>
<g>
</g>
<g>
</g>
</svg>
