<svg height="512pt" viewBox="0 -67 512 512" width="512pt" xmlns="http://www.w3.org/2000/svg"><path d="m392.5 116.632812h-273v55.582032h273zm-15 40.582032h-243v-25.582032h243zm0 0"/><path d="m512 16.410156h-39.351562c-23.476563 0-42.574219 19.097656-42.574219 42.574219v136.09375h-85.273438c-24.421875 0-44.292969 19.871094-44.292969 44.292969v41.300781h27.324219l-18.800781 52.921875h-30.605469l-1.425781-1.429688v-147.449218h-15v153.664062l10.214844 10.214844h31.484375l-4.996094 14.058594h-85.410156l-4.996094-14.058594h31.488281l10.214844-10.214844v-153.664062h-15v147.453125l-1.425781 1.425781h-30.605469l-18.800781-52.921875h27.324219v-41.300781c0-24.421875-19.871094-44.292969-44.292969-44.292969h-85.273438v-136.09375c0-23.476563-19.097656-42.574219-42.574219-42.574219h-39.351562v264.261719h35.5l-34.457031 96.980469h45.824219l34.453124-96.980469h57.023438l34.457031 96.980469h166.398438l34.457031-96.980469h57.023438l34.453124 96.980469h45.824219l-34.453125-96.980469h35.496094zm-475.722656 346.242188h-13.988282l29.128907-81.980469h13.984375zm-21.277344-96.980469v-13h83.332031v-15h-83.332031v-206.261719h24.351562c15.207032 0 27.574219 12.367188 27.574219 27.574219v151.09375h100.273438c16.152343 0 29.292969 13.140625 29.292969 29.292969v26.300781zm168.390625 96.980469-29.125-81.980469h13.984375l29.128906 81.980469zm145.21875 0h-13.984375l29.125-81.980469h13.988281zm161.101563 0h-13.988282l-29.125-81.980469h13.984375zm7.289062-96.980469h-181.492188v-13h83.335938v-15h-83.285156c.882812-15.367187 13.660156-27.59375 29.242187-27.59375h100.273438v-151.09375c0-15.207031 12.371093-27.574219 27.574219-27.574219h24.351562zm0 0"/><path d="m242.5 96.121094v15h27v-15h-6v-37.5h-15v6.25h-6v15h6v16.25zm0 0"/><path d="m230.300781 43.910156h51.398438l10.207031 61.449219 14.796875-2.457031-12.292969-73.992188h-17.585937c.730469-2.1875 1.128906-4.523437 1.128906-6.953125 0-12.105469-9.851563-21.957031-21.957031-21.957031-12.105469 0-21.957032 9.847656-21.957032 21.957031 0 2.429688.398438 4.765625 1.132813 6.953125h-17.585937l-12.289063 73.992188 14.796875 2.457031zm18.742188-21.953125c0-3.835937 3.117187-6.957031 6.953125-6.957031 3.835937 0 6.957031 3.121094 6.957031 6.957031 0 3.832031-3.121094 6.953125-6.957031 6.953125-3.835938 0-6.953125-3.121094-6.953125-6.953125zm0 0"/><path d="m56.925781 170.621094h-15v-61.636719h15zm0-71.636719h-15v-15h15zm0-25h-15v-15h15zm0 0"/><path d="m487 183.289062h-15v-84.382812h15zm0-94.378906h-15v-15h15zm0-25h-15v-15h15zm0 0"/><path d="m362.425781 151.921875h-32.972656v-15h32.972656zm-42.972656 0h-15v-15h15zm-25 0h-15v-15h15zm0 0"/></svg>